<?xml version="1.0" encoding="UTF-8" standalone="no"?>
<svg width="183px" height="28px" viewBox="0 0 183 28" version="1.1" xmlns="http://www.w3.org/2000/svg" xmlns:xlink="http://www.w3.org/1999/xlink">
    <!-- Generator: sketchtool 40 (33762) - http://www.bohemiancoding.com/sketch -->
    <title>8B0002CF-42E7-4359-BF79-185891A98FB0</title>
    <desc>Created with sketchtool.</desc>
    <defs>
        <polygon id="path-1" points="0.9639 8 4.4249 8 4.4249 0.8443 0.9639 0.8443 0.9639 8"></polygon>
        <polygon id="path-3" points="123.568 17.8707 123.568 0.5877 0.6133 0.5877 0.6133 17.8707 123.568 17.8707"></polygon>
    </defs>
    <g id="HOME1" stroke="none" stroke-width="1" fill="none" fill-rule="evenodd">
        <g id="HOME-01" transform="translate(-239.000000, -20.000000)">
            <g id="BARRA-DE-MENÚAZUL">
                <g id="FECHA-DEIMAGOTIPO" transform="translate(239.000000, 19.000000)">
                    <path d="M1.9189,26.3335 L1.9189,23.3355 C1.9189,22.6335 2.0809,22.1145 2.4049,21.7795 C2.7299,21.4445 3.1499,21.2765 3.6659,21.2765 C4.1929,21.2765 4.6099,21.4335 4.9179,21.7455 C5.2259,22.0585 5.3789,22.4395 5.3789,22.8915 C5.3789,23.0455 5.3589,23.1495 5.3169,23.2005 C5.2749,23.2525 5.2049,23.2775 5.1049,23.2775 C4.9329,23.2775 4.8419,23.1975 4.8309,23.0365 C4.8249,22.9395 4.8139,22.8465 4.7969,22.7555 C4.7809,22.6655 4.7479,22.5635 4.6969,22.4515 C4.6479,22.3385 4.5819,22.2405 4.5019,22.1565 C4.4209,22.0725 4.3089,22.0035 4.1649,21.9485 C4.0209,21.8945 3.8549,21.8665 3.6659,21.8665 C2.8669,21.8665 2.4679,22.3565 2.4679,23.3355 L2.4679,26.3335 C2.4679,27.3195 2.8779,27.8125 3.6989,27.8125 C3.9319,27.8125 4.1259,27.7755 4.2809,27.7015 C4.4369,27.6275 4.5499,27.5195 4.6229,27.3775 C4.6939,27.2365 4.7429,27.1155 4.7679,27.0155 C4.7929,26.9155 4.8139,26.7845 4.8309,26.6235 C4.8469,26.4565 4.9389,26.3725 5.1049,26.3725 C5.2049,26.3725 5.2749,26.3995 5.3169,26.4545 C5.3589,26.5095 5.3789,26.6135 5.3789,26.7685 C5.3789,27.2265 5.2229,27.6135 4.9099,27.9285 C4.5959,28.2445 4.1729,28.4025 3.6409,28.4025 C3.1299,28.4025 2.7159,28.2355 2.3969,27.8995 C2.0779,27.5645 1.9189,27.0425 1.9189,26.3335" id="Fill-1" fill="#F9F4D2"></path>
                    <path d="M7.1436,26.3335 L7.1436,21.5085 C7.1436,21.3545 7.2346,21.2765 7.4176,21.2765 C7.6016,21.2765 7.6926,21.3545 7.6926,21.5085 L7.6926,26.3335 C7.6926,26.8235 7.7966,27.1925 8.0046,27.4405 C8.2126,27.6885 8.5076,27.8125 8.8906,27.8125 C9.2736,27.8125 9.5686,27.6885 9.7766,27.4405 C9.9846,27.1925 10.0886,26.8235 10.0886,26.3335 L10.0886,21.5085 C10.0886,21.3545 10.1806,21.2765 10.3636,21.2765 C10.5456,21.2765 10.6376,21.3545 10.6376,21.5085 L10.6376,26.3335 C10.6376,27.0485 10.4776,27.5725 10.1596,27.9045 C9.8406,28.2365 9.4176,28.4025 8.8906,28.4025 C8.3636,28.4025 7.9406,28.2365 7.6216,27.9045 C7.3026,27.5725 7.1436,27.0485 7.1436,26.3335" id="Fill-3" fill="#F9F4D2"></path>
                    <path d="M13.2578,24.5737 L14.3898,24.5737 C15.2208,24.5737 15.6368,24.1187 15.6368,23.2107 C15.6368,22.3147 15.2208,21.8657 14.3898,21.8657 L13.2578,21.8657 L13.2578,24.5737 Z M12.7088,28.0937 L12.7088,21.5087 C12.7088,21.3667 12.7788,21.2897 12.9168,21.2767 L14.3898,21.2767 C14.9268,21.2767 15.3618,21.4247 15.6918,21.7207 C16.0218,22.0177 16.1868,22.5047 16.1868,23.1807 C16.1868,24.2517 15.7538,24.8737 14.8888,25.0477 L16.1698,27.9097 C16.1918,27.9417 16.2028,27.9837 16.2028,28.0347 C16.2028,28.1187 16.1698,28.1947 16.1028,28.2627 C16.0368,28.3297 15.9648,28.3647 15.8868,28.3647 C15.7868,28.3647 15.6898,28.2517 15.5958,28.0257 L14.3148,25.1247 L13.2578,25.1247 L13.2578,28.0937 C13.2578,28.1707 13.2298,28.2317 13.1748,28.2767 C13.1188,28.3227 13.0558,28.3447 12.9838,28.3447 C12.9058,28.3447 12.8408,28.3227 12.7878,28.2767 C12.7358,28.2317 12.7088,28.1707 12.7088,28.0937 L12.7088,28.0937 Z" id="Fill-5" fill="#F9F4D2"></path>
                    <path d="M17.4761,21.5474 C17.4761,21.4694 17.5091,21.4054 17.5761,21.3544 C17.6431,21.3024 17.7141,21.2764 17.7921,21.2764 C17.9141,21.2764 17.9861,21.3314 18.0081,21.4414 L19.5471,27.3784 L21.0781,21.4414 C21.1111,21.3314 21.1811,21.2764 21.2861,21.2764 C21.3641,21.2764 21.4381,21.3034 21.5111,21.3584 C21.5831,21.4124 21.6191,21.4774 21.6191,21.5534 C21.6191,21.5604 21.6161,21.5694 21.6091,21.5824 C21.6021,21.5954 21.5991,21.6044 21.5991,21.6104 L19.8731,28.1684 C19.8351,28.3244 19.7241,28.4024 19.5411,28.4024 C19.3651,28.4024 19.2571,28.3254 19.2181,28.1714 L17.4841,21.6144 C17.4781,21.6024 17.4761,21.5794 17.4761,21.5474" id="Fill-7" fill="#F9F4D2"></path>
                    <path d="M23.8564,26.1401 L25.8704,26.1401 L24.8664,22.2351 L23.8564,26.1401 Z M22.7924,28.0741 C22.7924,28.0421 22.7944,28.0191 22.8004,28.0061 L24.5394,21.4411 C24.5774,21.2921 24.6854,21.2191 24.8614,21.2191 C25.0374,21.2191 25.1484,21.2931 25.1914,21.4421 L26.9264,28.0221 C26.9264,28.0291 26.9274,28.0381 26.9304,28.0501 C26.9334,28.0621 26.9354,28.0721 26.9354,28.0771 C26.9354,28.1511 26.8984,28.2141 26.8264,28.2661 C26.7544,28.3191 26.6794,28.3451 26.6024,28.3451 C26.4964,28.3451 26.4274,28.2901 26.3944,28.1801 L26.0114,26.6911 L23.7134,26.6911 L23.3284,28.1821 C23.3054,28.2901 23.2324,28.3451 23.1104,28.3451 C23.0324,28.3451 22.9594,28.3191 22.8924,28.2671 C22.8254,28.2161 22.7924,28.1511 22.7924,28.0741 L22.7924,28.0741 Z" id="Fill-9" fill="#F9F4D2"></path>
                    <path d="M30.5034,26.4097 C30.5034,26.3457 30.5144,26.2907 30.5364,26.2457 L32.6254,21.4697 C32.6804,21.3407 32.7664,21.2767 32.8824,21.2767 C32.9434,21.2767 33.0034,21.3027 33.0624,21.3537 C33.1204,21.4057 33.1494,21.4667 33.1494,21.5377 C33.1494,21.5767 33.1404,21.6177 33.1244,21.6627 L31.2024,26.0727 L32.8334,26.0727 L32.8334,24.1897 C32.8334,24.0267 32.9244,23.9457 33.1074,23.9457 C33.1794,23.9457 33.2434,23.9667 33.2984,24.0087 C33.3544,24.0507 33.3814,24.1117 33.3814,24.1897 L33.3814,26.0727 L33.8394,26.0727 C33.9064,26.0727 33.9574,26.1017 33.9934,26.1617 C34.0294,26.2207 34.0474,26.2877 34.0474,26.3627 C34.0474,26.4437 34.0284,26.5137 33.9894,26.5737 C33.9504,26.6327 33.9004,26.6617 33.8394,26.6617 L33.3814,26.6617 L33.3814,28.0907 C33.3814,28.1687 33.3544,28.2307 33.2984,28.2767 C33.2434,28.3217 33.1794,28.3447 33.1074,28.3447 C33.0294,28.3447 32.9644,28.3217 32.9124,28.2767 C32.8594,28.2307 32.8334,28.1687 32.8334,28.0907 L32.8334,26.6617 L30.7194,26.6617 C30.5754,26.6617 30.5034,26.5777 30.5034,26.4097" id="Fill-11" fill="#F9F4D2"></path>
                    <path d="M38.6978,26.1401 L40.7118,26.1401 L39.7078,22.2351 L38.6978,26.1401 Z M37.6338,28.0741 C37.6338,28.0421 37.6358,28.0191 37.6418,28.0061 L39.3808,21.4411 C39.4188,21.2921 39.5268,21.2191 39.7028,21.2191 C39.8788,21.2191 39.9898,21.2931 40.0328,21.4421 L41.7678,28.0221 C41.7678,28.0291 41.7688,28.0381 41.7718,28.0501 C41.7748,28.0621 41.7768,28.0721 41.7768,28.0771 C41.7768,28.1511 41.7398,28.2141 41.6678,28.2661 C41.5958,28.3191 41.5208,28.3451 41.4438,28.3451 C41.3378,28.3451 41.2688,28.2901 41.2358,28.1801 L40.8528,26.6911 L38.5548,26.6911 L38.1698,28.1821 C38.1468,28.2901 38.0738,28.3451 37.9518,28.3451 C37.8738,28.3451 37.8008,28.3191 37.7338,28.2671 C37.6668,28.2161 37.6338,28.1511 37.6338,28.0741 L37.6338,28.0741 Z" id="Fill-13" fill="#F9F4D2"></path>
                    <path d="M43.3906,26.3335 L43.3906,21.5085 C43.3906,21.3545 43.4816,21.2765 43.6646,21.2765 C43.8486,21.2765 43.9396,21.3545 43.9396,21.5085 L43.9396,26.3335 C43.9396,26.8235 44.0436,27.1925 44.2516,27.4405 C44.4596,27.6885 44.7546,27.8125 45.1376,27.8125 C45.5206,27.8125 45.8156,27.6885 46.0236,27.4405 C46.2316,27.1925 46.3356,26.8235 46.3356,26.3335 L46.3356,21.5085 C46.3356,21.3545 46.4276,21.2765 46.6106,21.2765 C46.7926,21.2765 46.8846,21.3545 46.8846,21.5085 L46.8846,26.3335 C46.8846,27.0485 46.7246,27.5725 46.4066,27.9045 C46.0876,28.2365 45.6646,28.4025 45.1376,28.4025 C44.6106,28.4025 44.1876,28.2365 43.8686,27.9045 C43.5496,27.5725 43.3906,27.0485 43.3906,26.3335" id="Fill-15" fill="#F9F4D2"></path>
                    <path d="M48.4487,21.5713 C48.4487,21.4953 48.4667,21.4273 48.5027,21.3663 C48.5387,21.3063 48.5897,21.2763 48.6567,21.2763 L51.9927,21.2763 C52.0587,21.2763 52.1107,21.3053 52.1467,21.3623 C52.1827,21.4193 52.2007,21.4863 52.2007,21.5623 C52.2007,21.6443 52.1827,21.7163 52.1467,21.7763 C52.1107,21.8363 52.0587,21.8663 51.9927,21.8663 L50.6027,21.8663 L50.6027,28.0933 C50.6027,28.1703 50.5747,28.2323 50.5197,28.2773 C50.4647,28.3223 50.4007,28.3443 50.3287,28.3443 C50.2507,28.3443 50.1857,28.3223 50.1337,28.2773 C50.0807,28.2323 50.0537,28.1703 50.0537,28.0933 L50.0537,21.8663 L48.6567,21.8663 C48.5947,21.8663 48.5457,21.8383 48.5067,21.7803 C48.4677,21.7233 48.4487,21.6543 48.4487,21.5713" id="Fill-17" fill="#F9F4D2"></path>
                    <path d="M54.9043,19.9033 C54.9043,19.8203 54.9343,19.7613 54.9953,19.7293 L55.9273,19.1393 C55.9443,19.1203 55.9663,19.1113 55.9943,19.1113 C56.0553,19.1113 56.1033,19.1383 56.1393,19.1933 C56.1753,19.2473 56.1943,19.3103 56.1943,19.3813 C56.1943,19.4843 56.1603,19.5553 56.0933,19.5943 L55.2033,20.1453 C55.1813,20.1643 55.1543,20.1743 55.1203,20.1743 C55.0653,20.1743 55.0153,20.1473 54.9703,20.0923 C54.9263,20.0373 54.9043,19.9743 54.9043,19.9033 L54.9043,19.9033 Z M54.2723,26.3333 C54.2723,27.3203 54.6653,27.8133 55.4533,27.8133 C56.2403,27.8133 56.6343,27.3203 56.6343,26.3333 L56.6343,23.3363 C56.6343,22.3563 56.2403,21.8663 55.4533,21.8663 C54.6653,21.8663 54.2723,22.3563 54.2723,23.3363 L54.2723,26.3333 Z M53.7233,26.3333 L53.7233,23.3363 C53.7233,22.6273 53.8793,22.1063 54.1933,21.7743 C54.5063,21.4423 54.9263,21.2763 55.4533,21.2763 C55.9803,21.2763 56.4003,21.4423 56.7143,21.7743 C57.0273,22.1063 57.1833,22.6273 57.1833,23.3363 L57.1833,26.3333 C57.1833,27.0493 57.0273,27.5723 56.7143,27.9043 C56.4003,28.2363 55.9803,28.4033 55.4533,28.4033 C54.9263,28.4033 54.5063,28.2363 54.1933,27.9043 C53.8793,27.5723 53.7233,27.0493 53.7233,26.3333 L53.7233,26.3333 Z" id="Fill-19" fill="#F9F4D2"></path>
                    <path d="M59.7622,27.7549 L60.9352,27.7549 C61.3122,27.7549 61.6052,27.6309 61.8132,27.3829 C62.0212,27.1349 62.1252,26.7659 62.1252,26.2759 L62.1252,23.3359 C62.1252,22.8459 62.0212,22.4789 61.8132,22.2339 C61.6052,21.9889 61.3122,21.8659 60.9352,21.8659 L59.7622,21.8659 L59.7622,27.7549 Z M59.2132,28.1029 L59.2132,21.5089 C59.2132,21.4439 59.2372,21.3889 59.2842,21.3439 C59.3312,21.2989 59.3902,21.2759 59.4632,21.2759 L60.9352,21.2759 C61.4622,21.2759 61.8842,21.4429 62.2002,21.7749 C62.5162,22.1069 62.6742,22.6269 62.6742,23.3359 L62.6742,26.2759 C62.6742,26.9909 62.5162,27.5149 62.2002,27.8469 C61.8842,28.1789 61.4622,28.3449 60.9352,28.3449 L59.4632,28.3449 C59.3902,28.3449 59.3312,28.3199 59.2842,28.2719 C59.2372,28.2239 59.2132,28.1679 59.2132,28.1029 L59.2132,28.1029 Z" id="Fill-21" fill="#F9F4D2"></path>
                    <path d="M65.2529,24.5737 L66.3849,24.5737 C67.2159,24.5737 67.6319,24.1187 67.6319,23.2107 C67.6319,22.3147 67.2159,21.8657 66.3849,21.8657 L65.2529,21.8657 L65.2529,24.5737 Z M64.7039,28.0937 L64.7039,21.5087 C64.7039,21.3667 64.7739,21.2897 64.9119,21.2767 L66.3849,21.2767 C66.9219,21.2767 67.3569,21.4247 67.6869,21.7207 C68.0169,22.0177 68.1819,22.5047 68.1819,23.1807 C68.1819,24.2517 67.7489,24.8737 66.8839,25.0477 L68.1649,27.9097 C68.1869,27.9417 68.1979,27.9837 68.1979,28.0347 C68.1979,28.1187 68.1649,28.1947 68.0979,28.2627 C68.0319,28.3297 67.9599,28.3647 67.8819,28.3647 C67.7819,28.3647 67.6849,28.2517 67.5909,28.0257 L66.3099,25.1247 L65.2529,25.1247 L65.2529,28.0937 C65.2529,28.1707 65.2249,28.2317 65.1699,28.2767 C65.1139,28.3227 65.0509,28.3447 64.9789,28.3447 C64.9009,28.3447 64.8359,28.3227 64.7829,28.2767 C64.7309,28.2317 64.7039,28.1707 64.7039,28.0937 L64.7039,28.0937 Z" id="Fill-23" fill="#F9F4D2"></path>
                    <path d="M70.4194,26.3335 C70.4194,27.3195 70.8134,27.8125 71.6014,27.8125 C72.3884,27.8125 72.7824,27.3195 72.7824,26.3335 L72.7824,23.3355 C72.7824,22.3565 72.3884,21.8665 71.6014,21.8665 C70.8134,21.8665 70.4194,22.3565 70.4194,23.3355 L70.4194,26.3335 Z M69.8704,26.3335 L69.8704,23.3355 C69.8704,22.6265 70.0264,22.1065 70.3404,21.7745 C70.6534,21.4425 71.0734,21.2765 71.6014,21.2765 C72.1274,21.2765 72.5474,21.4425 72.8614,21.7745 C73.1744,22.1065 73.3314,22.6265 73.3314,23.3355 L73.3314,26.3335 C73.3314,27.0485 73.1744,27.5725 72.8614,27.9045 C72.5474,28.2365 72.1274,28.4025 71.6014,28.4025 C71.0734,28.4025 70.6534,28.2365 70.3404,27.9045 C70.0264,27.5725 69.8704,27.0485 69.8704,26.3335 L69.8704,26.3335 Z" id="Fill-25" fill="#F9F4D2"></path>
                    <path d="M75.3613,28.0933 L75.3613,21.5863 C75.3613,21.3803 75.4523,21.2763 75.6353,21.2763 C75.7963,21.2763 75.9443,21.4253 76.0763,21.7213 L77.5073,24.9313 L78.9383,21.7213 C79.0713,21.4253 79.2183,21.2763 79.3793,21.2763 C79.5623,21.2763 79.6543,21.3803 79.6543,21.5863 L79.6543,28.0933 C79.6543,28.1713 79.6283,28.2323 79.5753,28.2773 C79.5223,28.3223 79.4573,28.3443 79.3793,28.3443 C79.3073,28.3443 79.2433,28.3223 79.1883,28.2773 C79.1323,28.2323 79.1053,28.1713 79.1053,28.0933 L79.1053,22.6593 L77.7243,25.6953 C77.6633,25.8303 77.5883,25.8983 77.4993,25.8983 C77.4163,25.8983 77.3443,25.8303 77.2833,25.6953 L75.9103,22.6303 L75.9103,28.0933 C75.9103,28.1713 75.8823,28.2323 75.8273,28.2773 C75.7713,28.3223 75.7083,28.3443 75.6353,28.3443 C75.5583,28.3443 75.4933,28.3223 75.4403,28.2773 C75.3873,28.2323 75.3613,28.1713 75.3613,28.0933" id="Fill-27" fill="#F9F4D2"></path>
                    <path d="M82.2329,26.3335 C82.2329,27.3195 82.6269,27.8125 83.4149,27.8125 C84.2019,27.8125 84.5959,27.3195 84.5959,26.3335 L84.5959,23.3355 C84.5959,22.3565 84.2019,21.8665 83.4149,21.8665 C82.6269,21.8665 82.2329,22.3565 82.2329,23.3355 L82.2329,26.3335 Z M81.6839,26.3335 L81.6839,23.3355 C81.6839,22.6265 81.8399,22.1065 82.1539,21.7745 C82.4669,21.4425 82.8869,21.2765 83.4149,21.2765 C83.9409,21.2765 84.3609,21.4425 84.6749,21.7745 C84.9879,22.1065 85.1449,22.6265 85.1449,23.3355 L85.1449,26.3335 C85.1449,27.0485 84.9879,27.5725 84.6749,27.9045 C84.3609,28.2365 83.9409,28.4025 83.4149,28.4025 C82.8869,28.4025 82.4669,28.2365 82.1539,27.9045 C81.8399,27.5725 81.6839,27.0485 81.6839,26.3335 L81.6839,26.3335 Z" id="Fill-29" fill="#F9F4D2"></path>
                    <path d="M89.6704,28.0933 L89.6704,21.5093 C89.6704,21.3543 89.7614,21.2763 89.9444,21.2763 C90.1284,21.2763 90.2194,21.3543 90.2194,21.5093 L90.2194,24.4003 L92.6234,24.4003 L92.6234,21.5093 C92.6234,21.3543 92.7154,21.2763 92.8984,21.2763 C93.0814,21.2763 93.1724,21.3543 93.1724,21.5093 L93.1724,28.0933 C93.1724,28.1713 93.1454,28.2323 93.0894,28.2773 C93.0344,28.3223 92.9704,28.3443 92.8984,28.3443 C92.8204,28.3443 92.7554,28.3223 92.7024,28.2773 C92.6494,28.2323 92.6234,28.1713 92.6234,28.0933 L92.6234,24.9503 L90.2194,24.9503 L90.2194,28.0933 C90.2194,28.1713 90.1914,28.2323 90.1364,28.2773 C90.0804,28.3223 90.0174,28.3443 89.9444,28.3443 C89.8674,28.3443 89.8024,28.3223 89.7494,28.2773 C89.6964,28.2323 89.6704,28.1713 89.6704,28.0933" id="Fill-31" fill="#F9F4D2"></path>
                    <path d="M95.2695,28.0933 L95.2695,21.5183 C95.2695,21.4413 95.2945,21.3813 95.3445,21.3393 C95.3945,21.2973 95.4525,21.2763 95.5195,21.2763 L98.4805,21.2763 C98.6195,21.2763 98.6885,21.3703 98.6885,21.5573 C98.6885,21.6403 98.6705,21.7133 98.6345,21.7743 C98.5985,21.8363 98.5475,21.8663 98.4805,21.8663 L95.8185,21.8663 L95.8185,24.5253 L97.1245,24.5253 C97.1915,24.5253 97.2425,24.5523 97.2785,24.6073 C97.3145,24.6623 97.3325,24.7323 97.3325,24.8153 C97.3325,24.9893 97.2635,25.0763 97.1245,25.0763 L95.8185,25.0763 L95.8185,27.7553 L98.4805,27.7553 C98.5415,27.7553 98.5915,27.7833 98.6305,27.8423 C98.6695,27.9003 98.6885,27.9713 98.6885,28.0543 C98.6885,28.2483 98.6195,28.3443 98.4805,28.3443 L95.5195,28.3443 C95.4525,28.3443 95.3945,28.3223 95.3445,28.2773 C95.2945,28.2323 95.2695,28.1713 95.2695,28.0933" id="Fill-33" fill="#F9F4D2"></path>
                    <path d="M100.8765,24.5737 L102.0085,24.5737 C102.8395,24.5737 103.2555,24.1187 103.2555,23.2107 C103.2555,22.3147 102.8395,21.8657 102.0085,21.8657 L100.8765,21.8657 L100.8765,24.5737 Z M100.3275,28.0937 L100.3275,21.5087 C100.3275,21.3667 100.3975,21.2897 100.5355,21.2767 L102.0085,21.2767 C102.5455,21.2767 102.9805,21.4247 103.3105,21.7207 C103.6405,22.0177 103.8055,22.5047 103.8055,23.1807 C103.8055,24.2517 103.3725,24.8737 102.5075,25.0477 L103.7885,27.9097 C103.8105,27.9417 103.8215,27.9837 103.8215,28.0347 C103.8215,28.1187 103.7885,28.1947 103.7215,28.2627 C103.6555,28.3297 103.5835,28.3647 103.5055,28.3647 C103.4055,28.3647 103.3085,28.2517 103.2145,28.0257 L101.9335,25.1247 L100.8765,25.1247 L100.8765,28.0937 C100.8765,28.1707 100.8485,28.2317 100.7935,28.2767 C100.7375,28.3227 100.6745,28.3447 100.6025,28.3447 C100.5245,28.3447 100.4595,28.3227 100.4065,28.2767 C100.3545,28.2317 100.3275,28.1707 100.3275,28.0937 L100.3275,28.0937 Z" id="Fill-35" fill="#F9F4D2"></path>
                    <path d="M105.5601,28.0933 L105.5601,21.5863 C105.5601,21.3803 105.6511,21.2763 105.8341,21.2763 C105.9951,21.2763 106.1431,21.4253 106.2751,21.7213 L107.7061,24.9313 L109.1371,21.7213 C109.2701,21.4253 109.4171,21.2763 109.5781,21.2763 C109.7611,21.2763 109.8531,21.3803 109.8531,21.5863 L109.8531,28.0933 C109.8531,28.1713 109.8271,28.2323 109.7741,28.2773 C109.7211,28.3223 109.6561,28.3443 109.5781,28.3443 C109.5061,28.3443 109.4421,28.3223 109.3871,28.2773 C109.3311,28.2323 109.3041,28.1713 109.3041,28.0933 L109.3041,22.6593 L107.9231,25.6953 C107.8621,25.8303 107.7871,25.8983 107.6981,25.8983 C107.6151,25.8983 107.5431,25.8303 107.4821,25.6953 L106.1091,22.6303 L106.1091,28.0933 C106.1091,28.1713 106.0811,28.2323 106.0261,28.2773 C105.9701,28.3223 105.9071,28.3443 105.8341,28.3443 C105.7571,28.3443 105.6921,28.3223 105.6391,28.2773 C105.5861,28.2323 105.5601,28.1713 105.5601,28.0933" id="Fill-37" fill="#F9F4D2"></path>
                    <path d="M112.5566,26.1401 L114.5706,26.1401 L113.5666,22.2351 L112.5566,26.1401 Z M111.4926,28.0741 C111.4926,28.0421 111.4946,28.0191 111.5006,28.0061 L113.2396,21.4411 C113.2776,21.2921 113.3856,21.2191 113.5616,21.2191 C113.7376,21.2191 113.8486,21.2931 113.8916,21.4421 L115.6266,28.0221 C115.6266,28.0291 115.6276,28.0381 115.6306,28.0501 C115.6336,28.0621 115.6356,28.0721 115.6356,28.0771 C115.6356,28.1511 115.5986,28.2141 115.5266,28.2661 C115.4546,28.3191 115.3796,28.3451 115.3026,28.3451 C115.1966,28.3451 115.1276,28.2901 115.0946,28.1801 L114.7116,26.6911 L112.4136,26.6911 L112.0286,28.1821 C112.0056,28.2901 111.9326,28.3451 111.8106,28.3451 C111.7326,28.3451 111.6596,28.3191 111.5926,28.2671 C111.5256,28.2161 111.4926,28.1511 111.4926,28.0741 L111.4926,28.0741 Z" id="Fill-39" fill="#F9F4D2"></path>
                    <path d="M117.2739,28.0933 L117.2739,21.5183 C117.2739,21.3573 117.3649,21.2763 117.5479,21.2763 C117.7039,21.2763 117.8479,21.4253 117.9809,21.7213 L120.2269,26.8653 L120.2269,21.5093 C120.2269,21.3543 120.3189,21.2763 120.5019,21.2763 C120.6849,21.2763 120.7759,21.3543 120.7759,21.5093 L120.7759,28.0933 C120.7759,28.1713 120.7489,28.2323 120.6929,28.2773 C120.6379,28.3223 120.5739,28.3443 120.5019,28.3443 C120.3629,28.3443 120.2409,28.2223 120.1359,27.9773 L117.8229,22.7463 L117.8229,28.0933 C117.8229,28.1713 117.7949,28.2323 117.7399,28.2773 C117.6839,28.3223 117.6209,28.3443 117.5479,28.3443 C117.4709,28.3443 117.4059,28.3223 117.3529,28.2773 C117.2999,28.2323 117.2739,28.1713 117.2739,28.0933" id="Fill-41" fill="#F9F4D2"></path>
                    <path d="M123.355,26.3335 C123.355,27.3195 123.749,27.8125 124.537,27.8125 C125.324,27.8125 125.718,27.3195 125.718,26.3335 L125.718,23.3355 C125.718,22.3565 125.324,21.8665 124.537,21.8665 C123.749,21.8665 123.355,22.3565 123.355,23.3355 L123.355,26.3335 Z M122.806,26.3335 L122.806,23.3355 C122.806,22.6265 122.962,22.1065 123.276,21.7745 C123.589,21.4425 124.009,21.2765 124.537,21.2765 C125.063,21.2765 125.483,21.4425 125.797,21.7745 C126.11,22.1065 126.267,22.6265 126.267,23.3355 L126.267,26.3335 C126.267,27.0485 126.11,27.5725 125.797,27.9045 C125.483,28.2365 125.063,28.4025 124.537,28.4025 C124.009,28.4025 123.589,28.2365 123.276,27.9045 C122.962,27.5725 122.806,27.0485 122.806,26.3335 L122.806,26.3335 Z" id="Fill-43" fill="#F9F4D2"></path>
                    <g id="Group-47" transform="translate(127.000000, 20.412600)">
                        <mask id="mask-2" fill="white">
                            <use xlink:href="#path-1"></use>
                        </mask>
                        <g id="Clip-46"></g>
                        <path d="M0.9639,6.9653 C0.9639,6.8873 0.9899,6.8093 1.0429,6.7283 C1.0959,6.6483 1.1519,6.6073 1.2139,6.6073 C1.2579,6.6073 1.3139,6.6493 1.3799,6.7333 L1.6129,7.0133 C1.6959,7.1163 1.8279,7.2083 2.0079,7.2893 C2.1889,7.3693 2.3979,7.4103 2.6359,7.4103 C3.0299,7.4103 3.3349,7.2953 3.5509,7.0673 C3.7679,6.8383 3.8759,6.5073 3.8759,6.0753 C3.8759,5.7853 3.8249,5.5393 3.7219,5.3363 C3.6189,5.1323 3.4879,4.9763 3.3269,4.8673 C3.1719,4.7513 2.9939,4.6483 2.7949,4.5573 L2.1949,4.2863 C1.9959,4.1963 1.8169,4.0883 1.6589,3.9633 C1.5009,3.8373 1.3699,3.6603 1.2679,3.4313 C1.1649,3.2023 1.1139,2.9303 1.1139,2.6143 C1.1139,2.2773 1.1679,1.9873 1.2759,1.7443 C1.3839,1.5013 1.5299,1.3183 1.7129,1.1943 C1.8959,1.0713 2.0829,0.9823 2.2749,0.9273 C2.4659,0.8723 2.6669,0.8443 2.8779,0.8443 C3.2159,0.8443 3.5329,0.9013 3.8299,1.0133 C4.1269,1.1263 4.2759,1.2673 4.2759,1.4343 C4.2759,1.5113 4.2519,1.5903 4.2049,1.6713 C4.1569,1.7523 4.1009,1.7923 4.0339,1.7923 C4.0009,1.7923 3.9369,1.7623 3.8429,1.7023 C3.7479,1.6433 3.6169,1.5833 3.4469,1.5243 C3.2779,1.4643 3.0859,1.4343 2.8689,1.4343 C2.5199,1.4343 2.2319,1.5213 2.0039,1.6953 C1.7759,1.8693 1.6629,2.1563 1.6629,2.5563 C1.6629,2.8333 1.7309,3.0653 1.8669,3.2523 C2.0029,3.4393 2.1729,3.5743 2.3789,3.6583 C2.5839,3.7423 2.8049,3.8423 3.0439,3.9583 C3.2819,4.0743 3.5049,4.1983 3.7099,4.3303 C3.9149,4.4623 4.0849,4.6723 4.2209,4.9593 C4.3569,5.2453 4.4249,5.5983 4.4249,6.0173 C4.4249,6.6783 4.2669,7.1733 3.9509,7.5043 C3.6349,7.8343 3.2079,8.0003 2.6699,8.0003 C2.1869,8.0003 1.7819,7.8803 1.4549,7.6403 C1.1279,7.4013 0.9639,7.1753 0.9639,6.9653" id="Fill-45" fill="#F9F4D2" mask="url(#mask-2)"></path>
                    </g>
                    <path d="M136.2832,24.5737 L137.4152,24.5737 C138.2462,24.5737 138.6622,24.1187 138.6622,23.2107 C138.6622,22.3147 138.2462,21.8657 137.4152,21.8657 L136.2832,21.8657 L136.2832,24.5737 Z M135.7342,28.0937 L135.7342,21.5087 C135.7342,21.3667 135.8042,21.2897 135.9422,21.2767 L137.4152,21.2767 C137.9522,21.2767 138.3872,21.4247 138.7172,21.7207 C139.0472,22.0177 139.2122,22.5047 139.2122,23.1807 C139.2122,24.2517 138.7792,24.8737 137.9142,25.0477 L139.1952,27.9097 C139.2172,27.9417 139.2282,27.9837 139.2282,28.0347 C139.2282,28.1187 139.1952,28.1947 139.1282,28.2627 C139.0622,28.3297 138.9902,28.3647 138.9122,28.3647 C138.8122,28.3647 138.7152,28.2517 138.6212,28.0257 L137.3402,25.1247 L136.2832,25.1247 L136.2832,28.0937 C136.2832,28.1707 136.2552,28.2317 136.2002,28.2767 C136.1442,28.3227 136.0812,28.3447 136.0092,28.3447 C135.9312,28.3447 135.8662,28.3227 135.8132,28.2767 C135.7612,28.2317 135.7342,28.1707 135.7342,28.0937 L135.7342,28.0937 Z" id="Fill-48" fill="#F9F4D2"></path>
                    <path d="M141.4497,26.3335 C141.4497,27.3195 141.8437,27.8125 142.6317,27.8125 C143.4187,27.8125 143.8127,27.3195 143.8127,26.3335 L143.8127,23.3355 C143.8127,22.3565 143.4187,21.8665 142.6317,21.8665 C141.8437,21.8665 141.4497,22.3565 141.4497,23.3355 L141.4497,26.3335 Z M140.9007,26.3335 L140.9007,23.3355 C140.9007,22.6265 141.0567,22.1065 141.3707,21.7745 C141.6837,21.4425 142.1037,21.2765 142.6317,21.2765 C143.1577,21.2765 143.5777,21.4425 143.8917,21.7745 C144.2047,22.1065 144.3617,22.6265 144.3617,23.3355 L144.3617,26.3335 C144.3617,27.0485 144.2047,27.5725 143.8917,27.9045 C143.5777,28.2365 143.1577,28.4025 142.6317,28.4025 C142.1037,28.4025 141.6837,28.2365 141.3707,27.9045 C141.0567,27.5725 140.9007,27.0485 140.9007,26.3335 L140.9007,26.3335 Z" id="Fill-50" fill="#F9F4D2"></path>
                    <path d="M146.9399,27.7549 L148.1129,27.7549 C148.4899,27.7549 148.7829,27.6309 148.9909,27.3829 C149.1989,27.1349 149.3029,26.7659 149.3029,26.2759 L149.3029,23.3359 C149.3029,22.8459 149.1989,22.4789 148.9909,22.2339 C148.7829,21.9889 148.4899,21.8659 148.1129,21.8659 L146.9399,21.8659 L146.9399,27.7549 Z M146.3909,28.1029 L146.3909,21.5089 C146.3909,21.4439 146.4149,21.3889 146.4619,21.3439 C146.5089,21.2989 146.5679,21.2759 146.6409,21.2759 L148.1129,21.2759 C148.6399,21.2759 149.0619,21.4429 149.3779,21.7749 C149.6939,22.1069 149.8519,22.6269 149.8519,23.3359 L149.8519,26.2759 C149.8519,26.9909 149.6939,27.5149 149.3779,27.8469 C149.0619,28.1789 148.6399,28.3449 148.1129,28.3449 L146.6409,28.3449 C146.5679,28.3449 146.5089,28.3199 146.4619,28.2719 C146.4149,28.2239 146.3909,28.1679 146.3909,28.1029 L146.3909,28.1029 Z" id="Fill-52" fill="#F9F4D2"></path>
                    <path d="M152.4307,24.5737 L153.5627,24.5737 C154.3937,24.5737 154.8097,24.1187 154.8097,23.2107 C154.8097,22.3147 154.3937,21.8657 153.5627,21.8657 L152.4307,21.8657 L152.4307,24.5737 Z M151.8817,28.0937 L151.8817,21.5087 C151.8817,21.3667 151.9517,21.2897 152.0897,21.2767 L153.5627,21.2767 C154.0997,21.2767 154.5347,21.4247 154.8647,21.7207 C155.1947,22.0177 155.3597,22.5047 155.3597,23.1807 C155.3597,24.2517 154.9267,24.8737 154.0617,25.0477 L155.3427,27.9097 C155.3647,27.9417 155.3757,27.9837 155.3757,28.0347 C155.3757,28.1187 155.3427,28.1947 155.2757,28.2627 C155.2097,28.3297 155.1377,28.3647 155.0597,28.3647 C154.9597,28.3647 154.8627,28.2517 154.7687,28.0257 L153.4877,25.1247 L152.4307,25.1247 L152.4307,28.0937 C152.4307,28.1707 152.4027,28.2317 152.3477,28.2767 C152.2917,28.3227 152.2287,28.3447 152.1567,28.3447 C152.0787,28.3447 152.0137,28.3227 151.9607,28.2767 C151.9087,28.2317 151.8817,28.1707 151.8817,28.0937 L151.8817,28.0937 Z" id="Fill-54" fill="#F9F4D2"></path>
                    <path d="M157.1147,28.0933 L157.1147,21.5093 C157.1147,21.3543 157.2057,21.2763 157.3887,21.2763 C157.5727,21.2763 157.6637,21.3543 157.6637,21.5093 L157.6637,28.0933 C157.6637,28.1713 157.6357,28.2323 157.5807,28.2773 C157.5247,28.3223 157.4617,28.3443 157.3887,28.3443 C157.3117,28.3443 157.2467,28.3223 157.1937,28.2773 C157.1407,28.2323 157.1147,28.1713 157.1147,28.0933 M156.7567,19.9033 C156.7567,19.8203 156.7877,19.7613 156.8487,19.7293 L157.7807,19.1393 C157.7967,19.1203 157.8187,19.1113 157.8467,19.1113 C157.9077,19.1113 157.9557,19.1383 157.9917,19.1933 C158.0287,19.2473 158.0467,19.3103 158.0467,19.3813 C158.0467,19.4843 158.0127,19.5553 157.9467,19.5943 L157.0567,20.1453 C157.0287,20.1643 157.0007,20.1743 156.9727,20.1743 C156.9177,20.1743 156.8677,20.1473 156.8237,20.0923 C156.7797,20.0373 156.7567,19.9743 156.7567,19.9033" id="Fill-56" fill="#F9F4D2"></path>
                    <path d="M159.6938,26.3335 L159.6938,23.3355 C159.6938,22.6265 159.8498,22.1065 160.1638,21.7745 C160.4768,21.4425 160.8948,21.2765 161.4158,21.2765 C161.9428,21.2765 162.3638,21.4335 162.6798,21.7455 C162.9968,22.0585 163.1538,22.4595 163.1538,22.9495 C163.1538,23.1685 163.0628,23.2775 162.8798,23.2775 C162.7028,23.2775 162.6108,23.1975 162.6058,23.0365 C162.5278,22.2565 162.1338,21.8665 161.4238,21.8665 C160.6358,21.8665 160.2428,22.3565 160.2428,23.3355 L160.2428,26.3335 C160.2428,26.8305 160.3448,27.2005 160.5508,27.4455 C160.7558,27.6905 161.0468,27.8125 161.4238,27.8125 C161.8008,27.8125 162.0918,27.6905 162.2978,27.4455 C162.5028,27.2005 162.6058,26.8305 162.6058,26.3335 L162.6058,25.1835 L161.4908,25.1835 C161.4298,25.1835 161.3808,25.1555 161.3448,25.1005 C161.3088,25.0455 161.2908,24.9795 161.2908,24.9025 C161.2908,24.8315 161.3088,24.7685 161.3448,24.7135 C161.3808,24.6595 161.4298,24.6315 161.4908,24.6315 L162.9548,24.6315 C163.0878,24.6315 163.1538,24.7155 163.1538,24.8835 L163.1538,26.3335 C163.1538,27.0485 162.9978,27.5725 162.6848,27.9045 C162.3708,28.2365 161.9508,28.4025 161.4238,28.4025 C160.8968,28.4025 160.4768,28.2365 160.1638,27.9045 C159.8498,27.5725 159.6938,27.0485 159.6938,26.3335" id="Fill-58" fill="#F9F4D2"></path>
                    <path d="M165.0679,26.3335 L165.0679,21.5085 C165.0679,21.3545 165.1589,21.2765 165.3419,21.2765 C165.5259,21.2765 165.6169,21.3545 165.6169,21.5085 L165.6169,26.3335 C165.6169,26.8235 165.7209,27.1925 165.9289,27.4405 C166.1369,27.6885 166.4319,27.8125 166.8149,27.8125 C167.1979,27.8125 167.4929,27.6885 167.7009,27.4405 C167.9089,27.1925 168.0129,26.8235 168.0129,26.3335 L168.0129,21.5085 C168.0129,21.3545 168.1049,21.2765 168.2879,21.2765 C168.4699,21.2765 168.5619,21.3545 168.5619,21.5085 L168.5619,26.3335 C168.5619,27.0485 168.4019,27.5725 168.0839,27.9045 C167.7649,28.2365 167.3419,28.4025 166.8149,28.4025 C166.2879,28.4025 165.8649,28.2365 165.5459,27.9045 C165.2269,27.5725 165.0679,27.0485 165.0679,26.3335" id="Fill-60" fill="#F9F4D2"></path>
                    <path d="M170.6333,28.0933 L170.6333,21.5183 C170.6333,21.4413 170.6583,21.3813 170.7083,21.3393 C170.7583,21.2973 170.8163,21.2763 170.8833,21.2763 L173.8443,21.2763 C173.9833,21.2763 174.0523,21.3703 174.0523,21.5573 C174.0523,21.6403 174.0343,21.7133 173.9983,21.7743 C173.9623,21.8363 173.9113,21.8663 173.8443,21.8663 L171.1823,21.8663 L171.1823,24.5253 L172.4883,24.5253 C172.5553,24.5253 172.6063,24.5523 172.6423,24.6073 C172.6783,24.6623 172.6963,24.7323 172.6963,24.8153 C172.6963,24.9893 172.6273,25.0763 172.4883,25.0763 L171.1823,25.0763 L171.1823,27.7553 L173.8443,27.7553 C173.9053,27.7553 173.9553,27.7833 173.9943,27.8423 C174.0333,27.9003 174.0523,27.9713 174.0523,28.0543 C174.0523,28.2483 173.9833,28.3443 173.8443,28.3443 L170.8833,28.3443 C170.8163,28.3443 170.7583,28.3223 170.7083,28.2773 C170.6583,28.2323 170.6333,28.1713 170.6333,28.0933" id="Fill-62" fill="#F9F4D2"></path>
                    <path d="M175.2588,28.1226 C175.2588,28.0516 175.2758,27.9776 175.3088,27.8996 L178.0788,21.8666 L175.5668,21.8666 C175.5058,21.8666 175.4558,21.8376 175.4168,21.7796 C175.3778,21.7216 175.3588,21.6506 175.3588,21.5666 C175.3588,21.4896 175.3768,21.4216 175.4128,21.3636 C175.4488,21.3056 175.4998,21.2766 175.5668,21.2766 L178.5868,21.2766 C178.7248,21.2766 178.7948,21.3446 178.7948,21.4796 C178.7948,21.5576 178.7728,21.6406 178.7278,21.7306 L175.9658,27.7546 L178.6868,27.7546 C178.7528,27.7546 178.8038,27.7836 178.8408,27.8416 C178.8768,27.8996 178.8948,27.9676 178.8948,28.0446 C178.8948,28.1226 178.8768,28.1916 178.8408,28.2526 C178.8038,28.3136 178.7528,28.3446 178.6868,28.3446 L175.4588,28.3446 C175.3248,28.3446 175.2588,28.2706 175.2588,28.1226" id="Fill-64" fill="#F9F4D2"></path>
                    <g id="Group-68" transform="translate(59.000000, 0.412600)">
                        <mask id="mask-4" fill="white">
                            <use xlink:href="#path-3"></use>
                        </mask>
                        <g id="Clip-67"></g>
                        <polygon id="Fill-66" fill="#F9E67C" mask="url(#mask-4)" points="0.6133 2.5737 19.5753 0.5877 58.6063 1.7627 101.1953 1.9347 121.8163 1.9717 123.5683 14.5287 123.5643 16.7847 91.1403 17.5407 43.6193 17.8707 2.3443 16.7927"></polygon>
                    </g>
                    <path d="M66.6699,14.748 C66.6699,15.799 65.1719,15.799 65.1719,14.748 L65.1719,5.449 C65.1719,4.723 66.2359,4.412 66.5929,5.154 L69.6979,11.535 L69.6979,5.449 C69.6979,4.506 71.2439,4.506 71.2439,5.449 L71.2439,14.748 C71.2439,15.537 70.1619,15.861 69.7909,15.135 L66.6699,8.74 L66.6699,14.748 Z" id="Fill-69" fill="#0C223E"></path>
                    <path d="M75.8311,12.5391 C75.8311,13.3281 76.5261,14.0211 77.3141,14.0211 C78.1641,14.0211 78.8591,13.3591 78.8591,12.5391 L78.8591,7.7211 C78.8591,6.9001 78.1641,6.2341 77.3141,6.2341 C76.5261,6.2341 75.8311,6.9321 75.8311,7.7211 L75.8311,12.5391 Z M74.3161,7.7211 C74.3161,5.8651 75.9701,4.7231 77.3141,4.7231 C79.1841,4.7231 80.3731,6.3441 80.3731,7.7211 L80.3731,12.5391 C80.3731,14.1781 78.9671,15.5371 77.3141,15.5371 C75.4761,15.5371 74.3161,13.9141 74.3161,12.5391 L74.3161,7.7211 Z" id="Fill-71" fill="#0C223E"></path>
                    <path d="M83.0303,5.6484 C82.7833,4.6894 84.2663,4.2734 84.5123,5.3244 L85.9973,11.6134 L87.5413,5.3244 C87.7733,4.3364 89.1793,4.6894 88.9633,5.6484 L86.7073,14.9334 L86.7073,14.9514 C86.5063,15.6754 85.5173,15.7524 85.2853,14.9514 L85.2853,14.9334 L83.0303,5.6484 Z" id="Fill-73" fill="#0C223E"></path>
                    <path d="M92.0684,5.4492 C92.0684,4.4742 93.5824,4.4742 93.5824,5.4492 L93.5824,14.7482 C93.5824,15.7992 92.0684,15.7992 92.0684,14.7482 L92.0684,5.4492 Z" id="Fill-75" fill="#0C223E"></path>
                    <path d="M96.5156,5.4492 C96.5156,5.0622 96.8106,4.7222 97.2886,4.7222 L101.8476,4.7222 C102.8816,4.7222 102.8676,6.2342 101.8476,6.2342 L98.0156,6.2342 L98.0156,9.4202 L100.4886,9.4202 C101.5366,9.4202 101.5366,10.9332 100.4886,10.9332 L98.0156,10.9332 L98.0156,14.0212 L101.8476,14.0212 C102.8516,14.0212 102.8516,15.5372 101.8476,15.5372 L97.2886,15.5372 C96.8106,15.5372 96.5156,15.1352 96.5156,14.7482 L96.5156,5.4492 Z" id="Fill-77" fill="#0C223E"></path>
                    <path d="M111.4551,8.3828 L109.7561,11.0548 C109.3531,11.6448 108.9691,11.6448 108.6591,11.1038 L107.0531,8.3358 L107.0531,14.7478 C107.0531,15.7988 105.5531,15.7988 105.5531,14.7478 L105.5531,5.4318 C105.5531,4.7518 106.5721,4.3808 106.9591,5.1078 L109.2621,9.1718 L111.5631,5.1078 C111.9961,4.4438 112.9701,4.6898 112.9701,5.4318 L112.9701,14.7478 C112.9701,15.8148 111.4551,15.7988 111.4551,14.7478 L111.4551,8.3828 Z" id="Fill-79" fill="#0C223E"></path>
                    <path d="M117.5723,10.6094 L117.5723,14.0214 L118.6383,14.0214 C119.6113,14.0214 120.4163,13.2504 120.4163,12.3084 C120.4163,11.4414 119.7053,10.6704 118.8543,10.6094 L117.5723,10.6094 Z M117.5723,6.2344 L117.5723,9.0784 L118.8543,9.0784 C119.5503,9.0174 120.1363,8.3674 120.1363,7.6564 C120.1363,6.8714 119.4573,6.2344 118.6383,6.2344 L117.5723,6.2344 Z M116.0583,5.4494 C116.0583,5.0154 116.3833,4.7224 116.8613,4.7224 L118.6383,4.7224 C121.4973,4.7224 122.5783,7.9804 120.7093,9.8044 C121.4353,10.4224 121.9293,11.3024 121.9293,12.3084 C121.9293,14.1174 120.4613,15.5374 118.6383,15.5374 L116.8613,15.5374 C116.3833,15.5374 116.0583,15.2444 116.0583,14.8104 L116.0583,5.4494 Z" id="Fill-81" fill="#0C223E"></path>
                    <path d="M126.3789,6.2344 L126.3789,9.4044 L127.8609,9.4044 C128.6949,9.4044 129.3289,8.7404 129.3289,7.7964 C129.3289,6.9314 128.6499,6.2344 127.8609,6.2344 L126.3789,6.2344 Z M127.2129,10.9184 L126.3789,10.9184 L126.3789,14.7484 C126.3789,15.7984 124.8639,15.7984 124.8639,14.7484 L124.8639,5.4494 C124.8639,5.0624 125.1579,4.7224 125.6519,4.7224 L127.8609,4.7224 C129.5139,4.7224 130.8439,6.0804 130.8439,7.7964 C130.8439,9.2014 130.1019,10.3144 128.8189,10.7634 L130.8279,14.3634 C131.3539,15.3204 129.9629,16.0154 129.5139,15.1344 L127.2129,10.9184 Z" id="Fill-83" fill="#0C223E"></path>
                    <path d="M134.041,5.4492 C134.041,5.0622 134.334,4.7222 134.813,4.7222 L139.371,4.7222 C140.406,4.7222 140.391,6.2342 139.371,6.2342 L135.539,6.2342 L135.539,9.4202 L138.012,9.4202 C139.062,9.4202 139.062,10.9332 138.012,10.9332 L135.539,10.9332 L135.539,14.0212 L139.371,14.0212 C140.375,14.0212 140.375,15.5372 139.371,15.5372 L134.813,15.5372 C134.334,15.5372 134.041,15.1352 134.041,14.7482 L134.041,5.4492 Z" id="Fill-85" fill="#0C223E"></path>
                    <path d="M152.8115,8.6621 C152.9815,8.3831 153.0585,8.0741 153.0585,7.7211 C153.0585,6.9321 152.3635,6.2341 151.5755,6.2341 C150.7245,6.2341 150.0315,6.9001 150.0315,7.7211 C150.0315,8.7691 148.5155,8.8031 148.5155,7.7211 C148.5155,6.1271 149.8605,4.7361 151.5755,4.7361 C153.2125,4.7361 154.5565,6.0801 154.5565,7.7211 C154.5565,8.4451 154.3415,9.0331 154.0015,9.4801 L150.8025,14.0211 L153.8315,14.0211 C154.8805,14.0211 154.8805,15.5211 153.8315,15.5211 L149.3805,15.5211 C148.6855,15.5211 148.2985,14.8891 148.7015,14.3161 L152.8115,8.6621 Z" id="Fill-87" fill="#0C223E"></path>
                    <path d="M159.1143,12.5391 C159.1143,13.3281 159.8083,14.0211 160.5973,14.0211 C161.4473,14.0211 162.1413,13.3591 162.1413,12.5391 L162.1413,7.7211 C162.1413,6.9001 161.4473,6.2341 160.5973,6.2341 C159.8083,6.2341 159.1143,6.9321 159.1143,7.7211 L159.1143,12.5391 Z M157.5993,7.7211 C157.5993,6.2971 158.7893,4.7361 160.5973,4.7361 C162.2503,4.7361 163.6403,6.0981 163.6403,7.7211 L163.6403,12.5391 C163.6403,13.8691 162.5123,15.5211 160.5973,15.5211 C158.7423,15.5211 157.5993,13.9321 157.5993,12.5391 L157.5993,7.7211 Z" id="Fill-89" fill="#0C223E"></path>
                    <path d="M168.4453,7.4551 L168.0433,7.8731 C167.4243,8.5531 166.2663,7.6251 166.9453,6.8711 L168.6463,4.9551 C168.9703,4.5061 169.9293,4.7851 169.9293,5.4781 L169.9293,14.7481 C169.9293,15.7521 168.4453,15.7521 168.4453,14.7481 L168.4453,7.4551 Z" id="Fill-91" fill="#0C223E"></path>
                    <path d="M174.3789,12.5566 C174.3789,13.3886 175.0439,14.0366 175.8619,14.0366 C176.7439,14.0366 177.4059,13.4066 177.4059,12.5566 L177.4059,11.3656 C177.4059,10.5316 176.6819,9.8206 175.8619,9.8206 C175.0899,9.8206 174.3789,10.5466 174.3789,11.3656 L174.3789,12.5566 Z M172.8969,11.3656 C172.8969,10.8556 173.0349,10.3316 173.3439,9.7736 C173.3439,9.7736 173.3439,9.7576 173.3589,9.7576 L176.3109,5.0296 C176.8829,4.2266 177.9799,5.1226 177.5309,5.8496 L175.9859,8.3226 C177.5469,8.3826 178.9829,9.6816 178.9829,11.3656 L178.9829,12.5566 C178.9829,14.4866 177.2689,15.5366 175.8619,15.5366 C174.2399,15.5366 172.8969,14.1936 172.8969,12.5566 L172.8969,11.3656 Z" id="Fill-93" fill="#0C223E"></path>
                    <polygon id="Fill-95" fill="#8FD5EC" points="0 4.1484 8.181 2.3844 26.309 3.4394 45.629 3.5894 57.387 2.7654 58.301 15.4374 58.299 17.4144 41.067 17.2814 19.086 18.9414 0.923 18.7984"></polygon>
                    <path d="M2.96,7.7422 L2.557,8.1582 C1.938,8.8402 0.777,7.9122 1.458,7.1502 L3.162,5.2322 C3.486,4.7852 4.447,5.0622 4.447,5.7582 L4.447,15.0492 C4.447,16.0552 2.96,16.0552 2.96,15.0492 L2.96,7.7422 Z" id="Fill-97" fill="#0C223E"></path>
                    <path d="M8.998,9.1797 C8.998,10.0157 9.71,10.7287 10.531,10.7287 C11.305,10.7287 12.017,9.9997 12.017,9.1797 L12.017,7.9887 C12.017,7.1507 11.367,6.5017 10.531,6.5017 C9.648,6.5017 8.998,7.1367 8.998,7.9887 L8.998,9.1797 Z M10.423,12.2307 C8.859,12.1677 7.42,10.8667 7.42,9.1797 L7.42,7.9887 C7.42,6.3167 8.844,4.9997 10.531,4.9997 C12.172,4.9997 13.519,6.3477 13.519,7.9887 L13.519,9.1797 C13.519,9.7067 13.364,10.2167 13.055,10.7757 L13.055,10.7907 L10.082,15.5277 C9.571,16.3027 8.41,15.4977 8.874,14.7067 L10.423,12.2307 Z" id="Fill-99" fill="#0C223E"></path>
                    <path d="M23.3203,12.7852 C23.3203,13.6232 24.0023,14.3362 24.8063,14.3362 C25.1783,14.3362 25.5663,14.1812 25.8433,13.9042 L27.0973,12.6482 L25.8433,11.3942 C25.8433,11.3792 25.8293,11.3792 25.8293,11.3792 C25.5353,11.0062 25.1013,10.9472 24.8533,10.9472 L24.7283,10.9472 C23.9093,11.0232 23.3203,11.6422 23.3203,12.4312 L23.3203,12.7852 Z M24.8533,9.4612 C25.7053,9.3812 26.3403,8.7462 26.3403,7.9882 C26.3403,7.2442 25.8123,6.5022 24.8063,6.5022 C24.0173,6.5022 23.3203,7.1992 23.3203,7.9882 C23.3203,8.7622 23.9093,9.3812 24.7283,9.4612 L24.8533,9.4612 Z M21.8193,12.4312 C21.8193,11.5802 22.1753,10.7752 22.8253,10.1702 C22.1913,9.5822 21.8193,8.8082 21.8193,7.9882 L21.8193,7.9122 C21.8193,6.3162 23.1973,5.0002 24.8063,5.0002 C26.3863,5.0002 27.8413,6.2542 27.8413,7.9122 L27.8413,7.9882 C27.8413,8.8242 27.4703,9.5992 26.7893,10.1562 L28.1823,11.5662 L30.1013,9.6442 C30.7673,9.0272 31.8043,10.0622 31.1093,10.7602 L29.2183,12.6482 L30.9533,14.3202 C31.6803,15.0492 30.5973,16.0082 29.9003,15.4352 L28.1823,13.6702 L26.9433,14.9242 C26.4183,15.5122 25.6583,15.8402 24.8063,15.8402 C23.1663,15.8402 21.8193,14.4282 21.8193,12.7852 L21.8193,12.4312 Z" id="Fill-101" fill="#0C223E"></path>
                    <path d="M44.7188,8.9492 C44.8898,8.6702 44.9668,8.3592 44.9668,8.0022 C44.9668,7.2132 44.2708,6.5172 43.4808,6.5172 C42.6288,6.5172 41.9328,7.1832 41.9328,8.0022 C41.9328,9.0562 40.4148,9.0862 40.4148,8.0022 C40.4148,6.4082 41.7628,5.0152 43.4808,5.0152 C45.1218,5.0152 46.4688,6.3612 46.4688,8.0022 C46.4688,8.7302 46.2518,9.3182 45.9118,9.7672 L42.7068,14.3202 L45.7418,14.3202 C46.7948,14.3202 46.7948,15.8202 45.7418,15.8202 L41.2828,15.8202 C40.5858,15.8202 40.1978,15.1872 40.6018,14.6132 L44.7188,8.9492 Z" id="Fill-103" fill="#0C223E"></path>
                    <path d="M51.0371,12.834 C51.0371,13.623 51.7341,14.32 52.5231,14.32 C53.3751,14.32 54.0721,13.654 54.0721,12.834 L54.0721,8.002 C54.0721,7.184 53.3751,6.518 52.5231,6.518 C51.7341,6.518 51.0371,7.213 51.0371,8.002 L51.0371,12.834 Z M49.5191,8.002 C49.5191,6.58 50.7121,5.016 52.5231,5.016 C54.1811,5.016 55.5741,6.379 55.5741,8.002 L55.5741,12.834 C55.5741,14.166 54.4431,15.82 52.5231,15.82 C50.6661,15.82 49.5191,14.227 49.5191,12.834 L49.5191,8.002 Z" id="Fill-105" fill="#0C223E"></path>
                </g>
            </g>
        </g>
    </g>
</svg>