<svg xmlns="http://www.w3.org/2000/svg" xmlns:xlink="http://www.w3.org/1999/xlink" width="89" height="33" viewBox="0 0 89 33">
    <defs>
        <path id="a" d="M.034.594h18.37v19.162H.035z"/>
        <path id="c" d="M0 33.406h88.932V1H0z"/>
    </defs>
    <g fill="none" fill-rule="evenodd" transform="translate(0 -1)">
        <g transform="translate(0 .406)">
            <mask id="b" fill="#fff">
                <use xlink:href="#a"/>
            </mask>
            <path fill="#FDE6DB" d="M4.268 10.016c0 4.479 1.484 6.562 4.947 6.562 3.422 0 4.985-2.083 4.985-6.42 0-4.32-1.563-6.402-4.985-6.402-3.336 0-4.947 2.082-4.947 6.26M9.215.594c6.26 0 9.19 3.043 9.19 9.565 0 6.529-2.93 9.597-9.19 9.597-6.342 0-9.181-3.068-9.181-9.771 0-6.348 3.005-9.391 9.18-9.391" mask="url(#b)"/>
        </g>
        <path fill="#FDE6DB" d="M23.568 11.062c0 4.121 1.262 5.506 4.506 5.506h6.377v3.21h-6.545c-2.24 0-3.957-.17-5.75-1.609-1.9-1.515-2.826-3.927-2.826-7.267 0-6.51 2.752-9.539 8.672-9.539h6.45v3.154h-6.378c-3.244 0-4.506 1.977-4.506 6.545M39.951 8.848H50.69v3.219H39.935c.016 3.312 1.338 4.502 4.381 4.502h6.373v3.209h-6.54c-2.233 0-3.96-.17-5.75-1.608-1.907-1.515-2.825-3.927-2.825-7.267 0-6.51 2.748-9.54 8.676-9.54h6.44v3.202h-6.374c-2.795 0-4.203 1.402-4.365 4.283M58.957 4.65c-2.039 0-2.98.71-2.98 2.402 0 1.344.82 2.002 2.435 2.002h5.133c4.096 0 5.883 1.367 5.883 5.217 0 3.856-2.09 5.506-6.448 5.506H52.664v-3.275h9.701c2.043 0 3.004-.49 3.004-2.08 0-1.65-.873-2.126-2.758-2.126h-4.55c-4.211 0-6.151-1.595-6.151-5.289 0-4.009 2.09-5.644 6.477-5.644h10.134V4.65h-9.564zM75.59 15.635h4.004c.584-1.125 1.092-2.336 1.656-3.486h-4.6c.762-1.994 1.567-3.953 2.35-5.936 1.803 4.459 3.502 8.996 5.242 13.524 1.514.054 3.106.04 4.69.037v-.037a1536.263 1536.263 0 0 1-7.77-18.34h-4.365c-2.646 6.043-5.182 12.195-7.728 18.34h4.64c.682-1.311 1.252-2.74 1.88-4.102"/>
        <mask id="d" fill="#fff">
            <use xlink:href="#c"/>
        </mask>
        <path fill="#FDE6DB" d="M39.33 33.238h1.375v-1.373H39.33zM43.35 29.49c0 1.783.559 2.375 2.002 2.375h2.816v1.373h-2.892c-.996 0-1.746-.078-2.551-.693-.832-.653-1.242-1.698-1.242-3.125 0-2.805 1.207-4.096 3.822-4.096h2.863v1.367h-2.816c-1.443 0-2.002.838-2.002 2.8M50.795 29.213c0 1.928.658 2.828 2.197 2.828 1.512 0 2.205-.9 2.205-2.76 0-1.855-.693-2.754-2.205-2.754-1.486 0-2.197.899-2.197 2.686m2.197-4.03c2.762 0 4.063 1.298 4.063 4.098 0 2.799-1.301 4.119-4.063 4.119-2.808 0-4.074-1.32-4.074-4.201 0-2.718 1.33-4.015 4.074-4.015M60.756 25.324l2.09 6.07 2.072-6.07h2.512v7.914h-1.674l.139-6.16-2.09 6.16h-1.82l-2.166-6.223.185 6.223h-1.77v-7.914zM68.735 33.238h1.367v-1.373h-1.367zM73.916 25.324l2.078 6.07 2.074-6.07h2.518v7.914h-1.693l.148-6.16-2.096 6.16h-1.816l-2.168-6.223.17 6.223h-1.74v-7.914zM81.361 25.324h2.018l1.675 2.494 1.688-2.494H88.7l-2.62 3.842 2.811 4.072h-2.054l-1.713-2.758-1.83 2.758H81.27l2.846-3.957zM1.807 29.234c0 1.918.64 2.816 2.133 2.816 1.45 0 2.13-.898 2.13-2.76 0-1.835-.68-2.73-2.13-2.73-1.434 0-2.133.895-2.133 2.674m2.133-4.029c2.662 0 3.928 1.308 3.928 4.084 0 2.802-1.266 4.117-3.928 4.117-2.721 0-3.94-1.315-3.94-4.193 0-2.7 1.28-4.008 3.94-4.008M10.07 29.504c0 1.773.541 2.365 1.924 2.365h2.724v1.369h-2.796c-.959 0-1.69-.078-2.456-.681-.802-.662-1.197-1.682-1.197-3.112 0-2.791 1.158-4.08 3.69-4.08h2.76v1.344h-2.725c-1.383 0-1.924.844-1.924 2.795M17.086 28.566h4.59v1.371h-4.598c.008 1.414.565 1.932 1.869 1.932h2.729v1.37h-2.8c-.964 0-1.686-.079-2.46-.683-.81-.662-1.213-1.68-1.213-3.11 0-2.792 1.166-4.08 3.713-4.08h2.76v1.372h-2.73c-1.192 0-1.794.59-1.86 1.828M25.21 26.76c-.878 0-1.28.318-1.28 1.043 0 .572.359.853 1.043.853h2.199c1.758 0 2.51.579 2.51 2.23 0 1.659-.89 2.353-2.746 2.353h-4.411v-1.4h4.139c.88 0 1.287-.214 1.287-.893 0-.7-.363-.903-1.168-.903H24.83c-1.801 0-2.627-.681-2.627-2.263 0-1.717.89-2.415 2.762-2.415h4.342v1.395H25.21zM32.334 31.47h1.717c.23-.481.461-.993.697-1.501h-1.969c.325-.848.674-1.69 1.01-2.533.772 1.908 1.502 3.853 2.234 5.785.659.025 1.342.018 2.016.018v-.018a474.097 474.097 0 0 1-3.334-7.85h-1.863c-1.135 2.594-2.213 5.22-3.299 7.85h1.98c.293-.561.536-1.17.811-1.75" mask="url(#d)"/>
    </g>
</svg>
